<?xml version="1.0" standalone="no"?>
<!DOCTYPE svg PUBLIC "-//W3C//DTD SVG 20010904//EN"
 "http://www.w3.org/TR/2001/REC-SVG-20010904/DTD/svg10.dtd">
<svg version="1.0" xmlns="http://www.w3.org/2000/svg"
 width="1580.000000pt" height="1600.000000pt" viewBox="0 0 1580.000000 1600.000000"
 preserveAspectRatio="xMidYMid meet">

<g transform="translate(0.000000,1600.000000) scale(0.100000,-0.100000)"
fill="#000000" stroke="none">
<path d="M7266 15962 c5 -5 50 -40 99 -78 569 -435 1037 -1009 1370 -1679 91
-183 132 -275 178 -397 l22 -58 1815 0 c1708 0 1817 -1 1850 -18 32 -16 35
-21 34 -60 0 -27 -8 -50 -21 -65 -11 -12 -215 -249 -453 -527 -237 -278 -444
-518 -458 -535 -15 -16 -65 -75 -111 -130 -47 -55 -97 -113 -112 -130 -15 -16
-249 -289 -520 -605 -813 -948 -1348 -1572 -1399 -1630 -193 -222 -274 -320
-292 -355 -40 -77 -19 -185 55 -279 17 -22 137 -153 266 -291 129 -137 293
-313 365 -390 406 -433 427 -455 476 -484 38 -22 57 -26 120 -26 82 0 113 12
224 88 83 56 226 121 331 151 219 61 496 60 780 -3 224 -49 504 -175 656 -295
14 -12 43 -34 65 -50 21 -16 94 -84 161 -152 231 -234 398 -531 488 -869 65
-243 60 -103 60 -1710 -1 -1581 2 -1495 -53 -1706 -179 -683 -675 -1191 -1327
-1360 -397 -103 -857 -78 -1227 67 -542 212 -928 677 -1077 1299 -59 245 -81
464 -87 875 -3 173 -10 339 -14 368 -12 69 -52 124 -115 159 l-50 28 -1130 0
-1130 0 -40 -22 c-47 -25 -85 -64 -111 -113 -34 -64 -30 -424 11 -1016 55
-790 159 -1236 405 -1739 359 -735 944 -1315 1715 -1703 134 -67 339 -157 415
-182 14 -4 57 -20 95 -34 212 -79 536 -163 825 -215 537 -96 1252 -108 1800
-31 1150 162 2097 669 2736 1465 424 528 690 1161 785 1870 40 305 49 609 48
1730 -1 1306 -10 1490 -88 1915 -119 643 -413 1324 -792 1836 -126 169 -225
283 -392 449 -427 423 -897 694 -1442 830 -131 33 -163 47 -171 79 -9 39 2 59
99 179 105 129 443 545 655 806 79 97 198 244 265 326 67 83 164 202 217 266
52 63 142 174 200 245 57 71 190 234 295 363 104 129 240 296 300 370 61 75
140 172 176 216 36 44 118 145 183 225 65 80 152 187 194 238 136 166 159 200
181 263 21 62 21 72 21 1056 l0 994 -24 47 c-30 58 -68 95 -126 121 l-45 21
-4119 0 c-2266 0 -4116 -4 -4110 -8z"/>
</g>
</svg>
